# xmcd CD Database Entry
#
# Track frame offsets:
# 150
# 21732
# 44092
# 64951
# 81210
# 100778
# 118444
# 140142
# 158378
# 176962
# 201481
#
# Disc length: 3042 seconds
#
# Revision: 2
# Processed by: cddbd v1.4PL0 Copyright (c) Steve Scherf et al.
# Submitted via: tcd 2.0b
#
DISCID=ae0be00b
DTITLE=Sub-Urban Tribe
DYEAR=1900
DGENRE=
TTITLE0=Perfect Dark
TTITLE1=Oil And Water
TTITLE2=Frozen Ashes
TTITLE3=Dialogue for one
TTITLE4=If Only...
TTITLE5=Shadows And Silhouettes
TTITLE6=Watching You
TTITLE7=Rodeo
TTITLE8=Lost Time
TTITLE9=Into The Blue
TTITLE10=Color Of Silence
EXTD=\t\t\t\t\t
EXTT0=\t
EXTT1=
EXTT2=
EXTT3=\t
EXTT4=
EXTT5=
EXTT6=
EXTT7=
EXTT8=
EXTT9=
EXTT10=
PLAYORDER=
